<svg data-v-423bf9ae="" xmlns="http://www.w3.org/2000/svg" viewBox="0 0 455.3171236643132 60" class="font"><!----><!----><!----><g data-v-423bf9ae="" id="6a41c0ff-4661-4078-a3f7-b256666b41a3" fill="white" transform="matrix(4.709576222757963,0,0,4.709576222757963,-2.677732249310111,-16.530611781710697)"><path d="M8.65 7.07L8.65 7.07L8.65 7.07Q8.46 6.55 8.04 6.19L8.04 6.19L8.04 6.19Q7.62 5.82 7.08 5.62L7.08 5.62L7.08 5.62Q6.54 5.42 5.94 5.37L5.94 5.37L5.94 5.37Q5.33 5.32 4.80 5.43L4.80 5.43L4.80 5.43Q4.23 5.56 3.77 5.86L3.77 5.86L3.77 5.86Q3.32 6.16 3.00 6.59L3.00 6.59L3.00 6.59Q2.69 7.01 2.52 7.53L2.52 7.53L2.52 7.53Q2.35 8.05 2.35 8.61L2.35 8.61L2.35 8.61Q2.35 9.66 2.80 10.40L2.80 10.40L2.80 10.40Q3.25 11.13 3.93 11.52L3.93 11.52L3.93 11.52Q4.62 11.91 5.43 11.94L5.43 11.94L5.43 11.94Q6.24 11.97 6.97 11.63L6.97 11.63L6.97 11.63Q7.60 11.35 8.39 10.54L8.39 10.54L9.59 11.84L9.59 11.84Q9.11 12.33 8.67 12.68L8.67 12.68L8.67 12.68Q8.22 13.03 7.74 13.26L7.74 13.26L7.74 13.26Q7.25 13.48 6.71 13.59L6.71 13.59L6.71 13.59Q6.17 13.71 5.54 13.71L5.54 13.71L5.54 13.71Q4.41 13.71 3.54 13.34L3.54 13.34L3.54 13.34Q2.67 12.98 2.06 12.37L2.06 12.37L2.06 12.37Q1.44 11.76 1.08 10.97L1.08 10.97L1.08 10.97Q0.73 10.18 0.62 9.32L0.62 9.32L0.62 9.32Q0.50 8.47 0.66 7.62L0.66 7.62L0.66 7.62Q0.81 6.78 1.22 6.05L1.22 6.05L1.22 6.05Q1.61 5.36 2.11 4.89L2.11 4.89L2.11 4.89Q2.60 4.42 3.19 4.14L3.19 4.14L3.19 4.14Q3.77 3.85 4.42 3.72L4.42 3.72L4.42 3.72Q5.07 3.60 5.77 3.58L5.77 3.58L5.77 3.58Q6.26 3.58 6.80 3.68L6.80 3.68L6.80 3.68Q7.34 3.77 7.82 3.96L7.82 3.96L7.82 3.96Q8.30 4.14 8.68 4.44L8.68 4.44L8.68 4.44Q9.06 4.73 9.21 5.12L9.21 5.12L9.21 5.12Q9.37 5.52 9.25 6.00L9.25 6.00L9.25 6.00Q9.14 6.48 8.65 7.07ZM13.43 16.24L13.43 16.24L13.43 16.24Q12.74 16.24 12.16 16.06L12.16 16.06L12.16 16.06Q11.58 15.88 11.20 15.52L11.20 15.52L11.20 15.52Q10.82 15.16 10.69 14.62L10.69 14.62L10.69 14.62Q10.56 14.07 10.77 13.36L10.77 13.36L10.77 13.36Q10.93 13.66 11.21 13.90L11.21 13.90L11.21 13.90Q11.48 14.13 11.82 14.28L11.82 14.28L11.82 14.28Q12.15 14.43 12.52 14.51L12.52 14.51L12.52 14.51Q12.88 14.59 13.23 14.57L13.23 14.57L13.23 14.57Q14.24 14.53 14.77 14.05L14.77 14.05L14.77 14.05Q15.30 13.57 15.30 12.54L15.30 12.54L15.30 12.54Q15.20 12.81 14.97 13.01L14.97 13.01L14.97 13.01Q14.73 13.20 14.43 13.34L14.43 13.34L14.43 13.34Q14.14 13.47 13.83 13.54L13.83 13.54L13.83 13.54Q13.52 13.61 13.27 13.62L13.27 13.62L13.27 13.62Q12.74 13.65 12.22 13.48L12.22 13.48L12.22 13.48Q11.70 13.31 11.28 12.88L11.28 12.88L11.28 12.88Q10.65 12.24 10.65 11.00L10.65 11.00L10.65 6.26L12.43 6.26L12.43 6.26Q12.43 6.50 12.43 6.90L12.43 6.90L12.43 6.90Q12.42 7.29 12.42 7.78L12.42 7.78L12.42 7.78Q12.42 8.26 12.42 8.77L12.42 8.77L12.42 8.77Q12.42 9.28 12.43 9.74L12.43 9.74L12.43 9.74Q12.45 10.21 12.47 10.56L12.47 10.56L12.47 10.56Q12.50 10.92 12.54 11.09L12.54 11.09L12.54 11.09Q12.66 11.54 12.96 11.76L12.96 11.76L12.96 11.76Q13.27 11.98 13.64 11.98L13.64 11.98L13.64 11.98Q13.87 11.98 14.08 11.91L14.08 11.91L14.08 11.91Q14.29 11.83 14.46 11.69L14.46 11.69L14.46 11.69Q14.62 11.55 14.71 11.38L14.71 11.38L14.71 11.38Q14.81 11.20 14.81 10.99L14.81 10.99L14.81 10.99Q15.16 11.09 15.30 11.48L15.30 11.48L15.30 6.26L17.11 6.26L17.11 12.64L17.11 12.64Q17.11 14.29 16.18 15.27L16.18 15.27L16.18 15.27Q15.25 16.24 13.43 16.24ZM20.27 12.75L20.27 13.52L18.51 13.52L18.51 5.17L18.51 5.17Q18.51 4.59 18.98 4.17L18.98 4.17L18.98 4.17Q19.45 3.75 20.27 3.72L20.27 3.72L20.27 9.37L20.27 9.37Q20.27 9.84 20.36 10.33L20.36 10.33L20.36 10.33Q20.45 10.81 20.66 11.20L20.66 11.20L20.66 11.20Q20.87 11.59 21.24 11.84L21.24 11.84L21.24 11.84Q21.60 12.08 22.15 12.08L22.15 12.08L22.15 12.08Q22.79 12.08 23.22 11.77L23.22 11.77L23.22 11.77Q23.65 11.47 23.86 11.00L23.86 11.00L23.86 11.00Q24.07 10.54 24.06 10.00L24.06 10.00L24.06 10.00Q24.05 9.45 23.84 8.99L23.84 8.99L23.84 8.99Q23.62 8.53 23.19 8.22L23.19 8.22L23.19 8.22Q22.76 7.91 22.13 7.91L22.13 7.91L22.13 7.91Q21.76 7.91 21.33 8.03L21.33 8.03L21.33 8.03Q20.90 8.15 20.66 8.48L20.66 8.48L20.66 8.48Q20.54 8.26 20.53 7.90L20.53 7.90L20.53 7.90Q20.52 7.53 20.71 7.18L20.71 7.18L20.71 7.18Q20.89 6.83 21.28 6.57L21.28 6.57L21.28 6.57Q21.67 6.30 22.37 6.27L22.37 6.27L22.37 6.27Q23.04 6.26 23.67 6.52L23.67 6.52L23.67 6.52Q24.29 6.79 24.77 7.28L24.77 7.28L24.77 7.28Q25.26 7.77 25.54 8.46L25.54 8.46L25.54 8.46Q25.83 9.16 25.83 9.98L25.83 9.98L25.83 9.98Q25.83 10.84 25.56 11.52L25.56 11.52L25.56 11.52Q25.30 12.19 24.85 12.67L24.85 12.67L24.85 12.67Q24.40 13.15 23.83 13.41L23.83 13.41L23.83 13.41Q23.25 13.68 22.64 13.70L22.64 13.70L22.64 13.70Q22.02 13.72 21.41 13.50L21.41 13.50L21.41 13.50Q20.79 13.27 20.27 12.75L20.27 12.75ZM32.03 10.72L32.03 10.72L32.03 10.72Q31.28 10.92 30.65 10.86L30.65 10.86L30.65 10.86Q30.03 10.81 29.63 10.56L29.63 10.56L29.63 10.56Q29.23 10.32 29.10 9.91L29.10 9.91L29.10 9.91Q28.97 9.49 29.18 8.97L29.18 8.97L29.18 8.97Q29.61 9.34 30.18 9.37L30.18 9.37L30.18 9.37Q30.76 9.41 31.29 9.35L31.29 9.35L31.29 9.35Q31.74 9.31 31.97 9.16L31.97 9.16L31.97 9.16Q32.20 9.00 32.26 8.80L32.26 8.80L32.26 8.80Q32.31 8.60 32.21 8.37L32.21 8.37L32.21 8.37Q32.12 8.15 31.90 7.97L31.90 7.97L31.90 7.97Q31.68 7.78 31.37 7.67L31.37 7.67L31.37 7.67Q31.05 7.56 30.67 7.57L30.67 7.57L30.67 7.57Q30.27 7.60 29.90 7.77L29.90 7.77L29.90 7.77Q29.54 7.94 29.26 8.23L29.26 8.23L29.26 8.23Q28.98 8.53 28.81 8.92L28.81 8.92L28.81 8.92Q28.64 9.31 28.63 9.79L28.63 9.79L28.63 9.79Q28.62 10.18 28.72 10.56L28.72 10.56L28.72 10.56Q28.83 10.93 29.04 11.25L29.04 11.25L29.04 11.25Q29.25 11.56 29.54 11.78L29.54 11.78L29.54 11.78Q29.83 12.00 30.21 12.05L30.21 12.05L30.21 12.05Q30.74 12.15 31.30 11.98L31.30 11.98L31.30 11.98Q31.86 11.82 32.30 11.37L32.30 11.37L33.77 12.08L33.77 12.08Q33.19 12.94 32.41 13.31L32.41 13.31L32.41 13.31Q31.63 13.68 30.62 13.68L30.62 13.68L30.62 13.68Q29.68 13.68 28.97 13.35L28.97 13.35L28.97 13.35Q28.27 13.02 27.80 12.47L27.80 12.47L27.80 12.47Q27.33 11.93 27.10 11.24L27.10 11.24L27.10 11.24Q26.87 10.54 26.88 9.82L26.88 9.82L26.88 9.82Q26.89 9.10 27.16 8.41L27.16 8.41L27.16 8.41Q27.43 7.71 27.93 7.18L27.93 7.18L27.93 7.18Q28.49 6.58 29.24 6.33L29.24 6.33L29.24 6.33Q29.99 6.08 30.77 6.08L30.77 6.08L30.77 6.08Q31.64 6.08 32.27 6.37L32.27 6.37L32.27 6.37Q32.90 6.66 33.29 7.12L33.29 7.12L33.29 7.12Q33.68 7.57 33.81 8.13L33.81 8.13L33.81 8.13Q33.94 8.68 33.79 9.20L33.79 9.20L33.79 9.20Q33.64 9.72 33.21 10.13L33.21 10.13L33.21 10.13Q32.77 10.54 32.03 10.72ZM35.07 13.52L35.07 6.24L36.64 6.24L36.64 7.17L36.64 7.17Q36.88 6.68 37.25 6.39L37.25 6.39L37.25 6.39Q37.62 6.10 38.07 6.08L38.07 6.08L38.07 6.08Q38.65 6.03 39.02 6.29L39.02 6.29L39.02 6.29Q39.38 6.55 39.53 6.92L39.53 6.92L39.53 6.92Q39.68 7.29 39.61 7.68L39.61 7.68L39.61 7.68Q39.54 8.06 39.23 8.29L39.23 8.29L39.23 8.29Q39.10 7.94 38.75 7.83L38.75 7.83L38.75 7.83Q38.39 7.73 38.00 7.86L38.00 7.86L38.00 7.86Q37.60 7.99 37.29 8.36L37.29 8.36L37.29 8.36Q36.97 8.72 36.92 9.31L36.92 9.31L36.92 9.31Q36.89 9.65 36.89 9.98L36.89 9.98L36.89 9.98Q36.89 10.30 36.89 10.58L36.89 10.58L36.89 13.52L35.07 13.52ZM44.63 8.50L44.63 8.50L44.63 8.50Q44.52 8.23 44.32 8.07L44.32 8.07L44.32 8.07Q44.13 7.91 43.90 7.83L43.90 7.83L43.90 7.83Q43.67 7.74 43.45 7.74L43.45 7.74L43.45 7.74Q43.23 7.73 43.09 7.78L43.09 7.78L43.09 7.78Q42.84 7.87 42.76 8.07L42.76 8.07L42.76 8.07Q42.69 8.27 42.84 8.46L42.84 8.46L42.84 8.46Q42.97 8.60 43.24 8.73L43.24 8.73L43.24 8.73Q43.51 8.86 43.85 9.02L43.85 9.02L43.85 9.02Q44.18 9.18 44.54 9.39L44.54 9.39L44.54 9.39Q44.90 9.59 45.19 9.87L45.19 9.87L45.19 9.87Q45.49 10.15 45.68 10.53L45.68 10.53L45.68 10.53Q45.86 10.91 45.86 11.42L45.86 11.42L45.86 11.42Q45.86 12.03 45.60 12.48L45.60 12.48L45.60 12.48Q45.33 12.94 44.89 13.22L44.89 13.22L44.89 13.22Q44.45 13.50 43.90 13.60L43.90 13.60L43.90 13.60Q43.34 13.71 42.78 13.62L42.78 13.62L42.78 13.62Q42.21 13.54 41.68 13.24L41.68 13.24L41.68 13.24Q41.15 12.94 40.75 12.42L40.75 12.42L41.87 11.21L41.87 11.21Q42.22 11.63 42.61 11.82L42.61 11.82L42.61 11.82Q42.99 12.00 43.32 12.02L43.32 12.02L43.32 12.02Q43.65 12.04 43.88 11.92L43.88 11.92L43.88 11.92Q44.10 11.80 44.15 11.60L44.15 11.60L44.15 11.60Q44.20 11.40 44.03 11.15L44.03 11.15L44.03 11.15Q43.86 10.91 43.39 10.67L43.39 10.67L43.39 10.67Q42.94 10.44 42.51 10.21L42.51 10.21L42.51 10.21Q42.08 9.97 41.76 9.67L41.76 9.67L41.76 9.67Q41.43 9.38 41.22 9.02L41.22 9.02L41.22 9.02Q41.02 8.65 41.02 8.16L41.02 8.16L41.02 8.16Q41.02 7.66 41.23 7.27L41.23 7.27L41.23 7.27Q41.44 6.87 41.79 6.61L41.79 6.61L41.79 6.61Q42.14 6.34 42.59 6.22L42.59 6.22L42.59 6.22Q43.04 6.09 43.51 6.10L43.51 6.10L43.51 6.10Q44.32 6.15 44.75 6.46L44.75 6.46L44.75 6.46Q45.18 6.78 45.28 7.18L45.28 7.18L45.28 7.18Q45.39 7.57 45.21 7.95L45.21 7.95L45.21 7.95Q45.04 8.33 44.63 8.50ZM48.79 6.29L48.79 7.07L48.79 7.07Q49.31 6.55 49.93 6.31L49.93 6.31L49.93 6.31Q50.55 6.08 51.18 6.10L51.18 6.10L51.18 6.10Q51.81 6.13 52.40 6.40L52.40 6.40L52.40 6.40Q52.99 6.66 53.44 7.15L53.44 7.15L53.44 7.15Q53.89 7.64 54.16 8.34L54.16 8.34L54.16 8.34Q54.43 9.03 54.43 9.90L54.43 9.90L54.43 9.90Q54.43 10.74 54.14 11.44L54.14 11.44L54.14 11.44Q53.84 12.14 53.35 12.64L53.35 12.64L53.35 12.64Q52.86 13.15 52.23 13.42L52.23 13.42L52.23 13.42Q51.59 13.69 50.92 13.66L50.92 13.66L50.92 13.66Q50.22 13.64 49.81 13.36L49.81 13.36L49.81 13.36Q49.41 13.09 49.22 12.73L49.22 12.73L49.22 12.73Q49.04 12.38 49.04 12.01L49.04 12.01L49.04 12.01Q49.04 11.63 49.17 11.41L49.17 11.41L49.17 11.41Q49.29 11.58 49.47 11.70L49.47 11.70L49.47 11.70Q49.64 11.82 49.85 11.88L49.85 11.88L49.85 11.88Q50.05 11.94 50.27 11.97L50.27 11.97L50.27 11.97Q50.48 12.00 50.68 12.00L50.68 12.00L50.68 12.00Q51.32 12.00 51.76 11.68L51.76 11.68L51.76 11.68Q52.19 11.37 52.41 10.90L52.41 10.90L52.41 10.90Q52.63 10.43 52.63 9.88L52.63 9.88L52.63 9.88Q52.63 9.32 52.42 8.86L52.42 8.86L52.42 8.86Q52.21 8.39 51.77 8.07L51.77 8.07L51.77 8.07Q51.34 7.76 50.68 7.76L50.68 7.76L50.68 7.76Q50.13 7.76 49.77 8.01L49.77 8.01L49.77 8.01Q49.41 8.26 49.19 8.66L49.19 8.66L49.19 8.66Q48.97 9.06 48.88 9.55L48.88 9.55L48.88 9.55Q48.79 10.04 48.79 10.53L48.79 10.53L48.79 16.25L46.98 16.25L46.98 7.74L46.98 7.74Q46.98 7.38 47.13 7.10L47.13 7.10L47.13 7.10Q47.28 6.82 47.53 6.63L47.53 6.63L47.53 6.63Q47.78 6.44 48.10 6.36L48.10 6.36L48.10 6.36Q48.43 6.27 48.79 6.29L48.79 6.29ZM60.96 13.52L60.96 12.73L60.96 12.73Q60.42 13.24 59.80 13.48L59.80 13.48L59.80 13.48Q59.18 13.72 58.55 13.70L58.55 13.70L58.55 13.70Q57.92 13.68 57.32 13.41L57.32 13.41L57.32 13.41Q56.73 13.15 56.27 12.65L56.27 12.65L56.27 12.65Q55.82 12.15 55.55 11.46L55.55 11.46L55.55 11.46Q55.27 10.77 55.27 9.88L55.27 9.88L55.27 9.88Q55.27 9.04 55.57 8.33L55.57 8.33L55.57 8.33Q55.86 7.62 56.36 7.11L56.36 7.11L56.36 7.11Q56.85 6.61 57.49 6.34L57.49 6.34L57.49 6.34Q58.13 6.06 58.81 6.09L58.81 6.09L58.81 6.09Q59.49 6.12 59.89 6.39L59.89 6.39L59.89 6.39Q60.30 6.66 60.49 7.03L60.49 7.03L60.49 7.03Q60.68 7.39 60.68 7.76L60.68 7.76L60.68 7.76Q60.69 8.13 60.56 8.36L60.56 8.36L60.56 8.36Q60.33 8.01 59.89 7.89L59.89 7.89L59.89 7.89Q59.46 7.77 59.05 7.77L59.05 7.77L59.05 7.77Q58.41 7.77 57.97 8.09L57.97 8.09L57.97 8.09Q57.54 8.40 57.32 8.88L57.32 8.88L57.32 8.88Q57.09 9.35 57.09 9.91L57.09 9.91L57.09 9.91Q57.08 10.46 57.30 10.93L57.30 10.93L57.30 10.93Q57.51 11.41 57.95 11.73L57.95 11.73L57.95 11.73Q58.39 12.04 59.05 12.04L59.05 12.04L59.05 12.04Q59.61 12.04 59.98 11.79L59.98 11.79L59.98 11.79Q60.34 11.54 60.56 11.14L60.56 11.14L60.56 11.14Q60.77 10.74 60.87 10.24L60.87 10.24L60.87 10.24Q60.96 9.74 60.96 9.25L60.96 9.25L60.96 7.04L60.96 6.27L62.78 6.27L62.78 13.52L60.96 13.52ZM69.82 8.96L69.82 8.96L69.82 8.96Q69.71 8.57 69.39 8.30L69.39 8.30L69.39 8.30Q69.08 8.04 68.66 7.90L68.66 7.90L68.66 7.90Q68.24 7.77 67.76 7.78L67.76 7.78L67.76 7.78Q67.28 7.78 66.86 7.97L66.86 7.97L66.86 7.97Q66.43 8.15 66.11 8.51L66.11 8.51L66.11 8.51Q65.79 8.86 65.66 9.41L65.66 9.41L65.66 9.41Q65.56 9.86 65.63 10.32L65.63 10.32L65.63 10.32Q65.70 10.78 65.95 11.15L65.95 11.15L65.95 11.15Q66.21 11.52 66.63 11.76L66.63 11.76L66.63 11.76Q67.06 12.00 67.66 12.00L67.66 12.00L67.66 12.00Q68.80 12.00 69.43 11.17L69.43 11.17L70.76 12.14L70.76 12.14Q69.69 13.64 67.69 13.64L67.69 13.64L67.69 13.64Q66.64 13.64 65.88 13.24L65.88 13.24L65.88 13.24Q65.11 12.84 64.64 12.20L64.64 12.20L64.64 12.20Q64.16 11.56 63.99 10.77L63.99 10.77L63.99 10.77Q63.83 9.98 63.96 9.21L63.96 9.21L63.96 9.21Q64.09 8.43 64.54 7.74L64.54 7.74L64.54 7.74Q64.99 7.04 65.76 6.61L65.76 6.61L65.76 6.61Q66.33 6.29 66.98 6.17L66.98 6.17L66.98 6.17Q67.63 6.05 68.29 6.15L68.29 6.15L68.29 6.15Q69.16 6.27 69.64 6.66L69.64 6.66L69.64 6.66Q70.13 7.06 70.28 7.51L70.28 7.51L70.28 7.51Q70.43 7.97 70.30 8.38L70.30 8.38L70.30 8.38Q70.17 8.79 69.82 8.96ZM76.82 10.72L76.82 10.72L76.82 10.72Q76.06 10.92 75.44 10.86L75.44 10.86L75.44 10.86Q74.82 10.81 74.42 10.56L74.42 10.56L74.42 10.56Q74.02 10.32 73.89 9.91L73.89 9.91L73.89 9.91Q73.75 9.49 73.96 8.97L73.96 8.97L73.96 8.97Q74.40 9.34 74.97 9.37L74.97 9.37L74.97 9.37Q75.54 9.41 76.08 9.35L76.08 9.35L76.08 9.35Q76.52 9.31 76.75 9.16L76.75 9.16L76.75 9.16Q76.99 9.00 77.04 8.80L77.04 8.80L77.04 8.80Q77.10 8.60 77 8.37L77 8.37L77 8.37Q76.90 8.15 76.69 7.97L76.69 7.97L76.69 7.97Q76.47 7.78 76.15 7.67L76.15 7.67L76.15 7.67Q75.84 7.56 75.46 7.57L75.46 7.57L75.46 7.57Q75.05 7.60 74.69 7.77L74.69 7.77L74.69 7.77Q74.33 7.94 74.05 8.23L74.05 8.23L74.05 8.23Q73.77 8.53 73.60 8.92L73.60 8.92L73.60 8.92Q73.43 9.31 73.42 9.79L73.42 9.79L73.42 9.79Q73.40 10.18 73.51 10.56L73.51 10.56L73.51 10.56Q73.61 10.93 73.82 11.25L73.82 11.25L73.82 11.25Q74.03 11.56 74.33 11.78L74.33 11.78L74.33 11.78Q74.62 12.00 75.00 12.05L75.00 12.05L75.00 12.05Q75.53 12.15 76.09 11.98L76.09 11.98L76.09 11.98Q76.65 11.82 77.08 11.37L77.08 11.37L78.55 12.08L78.55 12.08Q77.98 12.94 77.20 13.31L77.20 13.31L77.20 13.31Q76.41 13.68 75.40 13.68L75.40 13.68L75.40 13.68Q74.47 13.68 73.76 13.35L73.76 13.35L73.76 13.35Q73.05 13.02 72.58 12.47L72.58 12.47L72.58 12.47Q72.11 11.93 71.88 11.24L71.88 11.24L71.88 11.24Q71.65 10.54 71.67 9.82L71.67 9.82L71.67 9.82Q71.68 9.10 71.95 8.41L71.95 8.41L71.95 8.41Q72.21 7.71 72.72 7.18L72.72 7.18L72.72 7.18Q73.28 6.58 74.03 6.33L74.03 6.33L74.03 6.33Q74.77 6.08 75.56 6.08L75.56 6.08L75.56 6.08Q76.43 6.08 77.06 6.37L77.06 6.37L77.06 6.37Q77.69 6.66 78.08 7.12L78.08 7.12L78.08 7.12Q78.47 7.57 78.60 8.13L78.60 8.13L78.60 8.13Q78.72 8.68 78.58 9.20L78.58 9.20L78.58 9.20Q78.43 9.72 77.99 10.13L77.99 10.13L77.99 10.13Q77.56 10.54 76.82 10.72ZM84.64 3.54L84.64 3.54L84.64 3.54Q86.72 3.54 88.19 5.04L88.19 5.04L88.19 5.04Q89.67 6.52 89.67 8.68L89.67 8.68L89.67 8.68Q89.67 10.82 88.21 12.28L88.21 12.28L88.21 12.28Q86.74 13.75 84.66 13.75L84.66 13.75L84.66 13.75Q82.46 13.75 81.02 12.24L81.02 12.24L81.02 12.24Q79.58 10.74 79.58 8.64L79.58 8.64L79.58 8.64Q79.58 8.43 79.60 8.18L79.60 8.18L79.60 8.18Q79.62 7.94 79.66 7.67L79.66 7.67L79.66 7.67Q79.70 7.41 79.77 7.16L79.77 7.16L79.77 7.16Q79.84 6.92 79.95 6.71L79.95 6.71L79.95 6.71Q80.18 6.26 80.58 5.98L80.58 5.98L80.58 5.98Q80.99 5.70 81.45 5.60L81.45 5.60L81.45 5.60Q81.90 5.50 82.36 5.58L82.36 5.58L82.36 5.58Q82.81 5.66 83.15 5.89L83.15 5.89L83.15 5.89Q83.48 6.13 83.63 6.55L83.63 6.55L83.63 6.55Q83.78 6.96 83.64 7.52L83.64 7.52L83.64 7.52Q83.37 7.20 82.98 7.11L82.98 7.11L82.98 7.11Q82.60 7.03 82.25 7.20L82.25 7.20L82.25 7.20Q81.90 7.36 81.66 7.78L81.66 7.78L81.66 7.78Q81.42 8.20 81.45 8.89L81.45 8.89L81.45 8.89Q81.51 10.35 82.60 11.23L82.60 11.23L82.60 11.23Q83.50 11.97 84.66 11.97L84.66 11.97L84.66 11.97Q85.96 11.97 86.88 11.02L86.88 11.02L86.88 11.02Q87.81 10.05 87.81 8.67L87.81 8.67L87.81 8.67Q87.81 7.28 86.88 6.31L86.88 6.31L86.88 6.31Q85.93 5.36 84.62 5.36L84.62 5.36L84.62 5.36Q84 5.36 83.50 5.54L83.50 5.54L83.50 5.54Q83.24 5.32 82.90 5.19L82.90 5.19L82.90 5.19Q82.56 5.07 82.17 5.05L82.17 5.05L82.17 5.05Q81.79 5.04 81.40 5.14L81.40 5.14L81.40 5.14Q81.02 5.24 80.68 5.45L80.68 5.45L80.68 5.45Q81.27 4.72 82.10 4.23L82.10 4.23L82.10 4.23Q83.29 3.54 84.64 3.54ZM96.32 6.47L96.32 6.47L96.32 6.47Q96.05 5.95 95.69 5.67L95.69 5.67L95.69 5.67Q95.33 5.39 94.95 5.29L94.95 5.29L94.95 5.29Q94.58 5.19 94.24 5.26L94.24 5.26L94.24 5.26Q93.90 5.33 93.67 5.50L93.67 5.50L93.67 5.50Q93.45 5.67 93.39 5.91L93.39 5.91L93.39 5.91Q93.34 6.15 93.53 6.40L93.53 6.40L93.53 6.40Q93.80 6.73 94.29 7.13L94.29 7.13L94.29 7.13Q94.78 7.53 95.31 7.98L95.31 7.98L95.31 7.98Q95.83 8.43 96.31 8.90L96.31 8.90L96.31 8.90Q96.78 9.38 97.01 9.87L97.01 9.87L97.01 9.87Q97.29 10.50 97.24 11.19L97.24 11.19L97.24 11.19Q97.20 11.89 96.84 12.46L96.84 12.46L96.84 12.46Q96.49 13.03 95.83 13.41L95.83 13.41L95.83 13.41Q95.17 13.78 94.23 13.78L94.23 13.78L94.23 13.78Q93.67 13.78 93.14 13.60L93.14 13.60L93.14 13.60Q92.60 13.43 92.12 13.11L92.12 13.11L92.12 13.11Q91.64 12.80 91.25 12.36L91.25 12.36L91.25 12.36Q90.85 11.93 90.58 11.40L90.58 11.40L92.05 10.32L92.05 10.32Q92.18 10.58 92.37 10.84L92.37 10.84L92.37 10.84Q92.57 11.09 92.81 11.31L92.81 11.31L92.81 11.31Q93.04 11.52 93.30 11.68L93.30 11.68L93.30 11.68Q93.56 11.84 93.80 11.91L93.80 11.91L93.80 11.91Q94.22 12.03 94.59 11.94L94.59 11.94L94.59 11.94Q94.96 11.86 95.17 11.63L95.17 11.63L95.17 11.63Q95.38 11.40 95.38 11.05L95.38 11.05L95.38 11.05Q95.38 10.71 95.06 10.30L95.06 10.30L95.06 10.30Q94.71 9.87 94.12 9.41L94.12 9.41L94.12 9.41Q93.53 8.95 92.96 8.43L92.96 8.43L92.96 8.43Q92.39 7.91 91.97 7.31L91.97 7.31L91.97 7.31Q91.55 6.71 91.55 5.99L91.55 5.99L91.55 5.99Q91.55 5.45 91.77 4.98L91.77 4.98L91.77 4.98Q91.99 4.52 92.37 4.20L92.37 4.20L92.37 4.20Q92.74 3.88 93.23 3.70L93.23 3.70L93.23 3.70Q93.72 3.51 94.25 3.51L94.25 3.51L94.25 3.51Q94.92 3.51 95.50 3.70L95.50 3.70L95.50 3.70Q96.08 3.89 96.45 4.24L96.45 4.24L96.45 4.24Q96.71 4.48 96.85 4.77L96.85 4.77L96.85 4.77Q96.99 5.07 96.99 5.37L96.99 5.37L96.99 5.37Q96.99 5.67 96.83 5.96L96.83 5.96L96.83 5.96Q96.67 6.24 96.32 6.47Z"></path></g><!----><!----></svg>